<?xml version="1.0" encoding="UTF-8" standalone="no"?>
<svg
   xmlns:dc="http://purl.org/dc/elements/1.1/"
   xmlns:cc="http://creativecommons.org/ns#"
   xmlns:rdf="http://www.w3.org/1999/02/22-rdf-syntax-ns#"
   xmlns:svg="http://www.w3.org/2000/svg"
   xmlns="http://www.w3.org/2000/svg"
   xmlns:sodipodi="http://sodipodi.sourceforge.net/DTD/sodipodi-0.dtd"
   xmlns:inkscape="http://www.inkscape.org/namespaces/inkscape"
   width="10mm"
   height="10mm"
   viewBox="0 0 10 10"
   version="1.1"
   id="svg8"
   inkscape:version="1.0.2 (e86c870, 2021-01-15)"
   sodipodi:docname="crash.svg"
   inkscape:label="Base Circle">
  <title
     id="title833">Aetherium RPG Dice Symbols</title>
  <defs
     id="defs2">
    <inkscape:path-effect
       effect="mirror_symmetry"
       start_point="5.0001758,1.2252482"
       end_point="5.0001758,9.0831656"
       center_point="5.0001758,5.1542069"
       id="path-effect2137"
       is_visible="true"
       lpeversion="1"
       mode="vertical"
       discard_orig_path="false"
       fuse_paths="false"
       oposite_fuse="false"
       split_items="false" />
    <inkscape:path-effect
       effect="mirror_symmetry"
       start_point="5.0001758,1.2252482"
       end_point="5.0001758,9.0831656"
       center_point="5.0001758,5.1542069"
       id="path-effect1971"
       is_visible="true"
       lpeversion="1"
       mode="vertical"
       discard_orig_path="false"
       fuse_paths="false"
       oposite_fuse="false"
       split_items="false" />
    <inkscape:path-effect
       effect="mirror_symmetry"
       start_point="5.0001758,1.2252482"
       end_point="5.0001758,9.0831656"
       center_point="5.0001758,5.1542069"
       id="path-effect1944"
       is_visible="true"
       lpeversion="1"
       mode="vertical"
       discard_orig_path="false"
       fuse_paths="false"
       oposite_fuse="false"
       split_items="false" />
    <inkscape:path-effect
       effect="mirror_symmetry"
       start_point="5.0001758,1.2252482"
       end_point="5.0001758,9.0831656"
       center_point="5.0001758,5.1542069"
       id="path-effect1938"
       is_visible="true"
       lpeversion="1"
       mode="vertical"
       discard_orig_path="false"
       fuse_paths="false"
       oposite_fuse="false"
       split_items="false" />
  </defs>
  <sodipodi:namedview
     id="base"
     pagecolor="#ffffff"
     bordercolor="#666666"
     borderopacity="1.0"
     inkscape:pageopacity="0.0"
     inkscape:pageshadow="2"
     inkscape:zoom="11.313709"
     inkscape:cx="-12.704415"
     inkscape:cy="17.663134"
     inkscape:document-units="mm"
     inkscape:current-layer="g1128"
     inkscape:document-rotation="0"
     showgrid="false"
     inkscape:window-width="1920"
     inkscape:window-height="1053"
     inkscape:window-x="0"
     inkscape:window-y="0"
     inkscape:window-maximized="1"
     showguides="true"
     inkscape:guide-bbox="true"
     inkscape:object-paths="true"
     inkscape:object-nodes="true"
     inkscape:snap-center="true"
     inkscape:snap-intersection-paths="true"
     inkscape:snap-nodes="false"
     inkscape:snap-object-midpoints="true">
    <sodipodi:guide
       position="15.77578,-2.9976556"
       orientation="0,-1"
       id="guide1050" />
  </sodipodi:namedview>
  <metadata
     id="metadata5">
    <rdf:RDF>
      <cc:Work
         rdf:about="">
        <dc:format>image/svg+xml</dc:format>
        <dc:type
           rdf:resource="http://purl.org/dc/dcmitype/StillImage" />
        <dc:title>Aetherium RPG Dice Symbols</dc:title>
        <cc:license
           rdf:resource="http://creativecommons.org/publicdomain/zero/1.0/" />
        <dc:creator>
          <cc:Agent>
            <dc:title>Moritz Maxeiner</dc:title>
          </cc:Agent>
        </dc:creator>
      </cc:Work>
      <cc:License
         rdf:about="http://creativecommons.org/publicdomain/zero/1.0/">
        <cc:permits
           rdf:resource="http://creativecommons.org/ns#Reproduction" />
        <cc:permits
           rdf:resource="http://creativecommons.org/ns#Distribution" />
        <cc:permits
           rdf:resource="http://creativecommons.org/ns#DerivativeWorks" />
      </cc:License>
    </rdf:RDF>
  </metadata>
  <g
     id="g1128"
     inkscape:label="Crash"
     style="display:inline"
     inkscape:groupmode="layer">
    <g
       id="g2147">
      <path
         id="path1926"
         style="opacity:1;fill:#00004d;fill-opacity:1;stroke:none;stroke-width:0.446032;stroke-linecap:butt;stroke-linejoin:round;stroke-miterlimit:0;stroke-dasharray:none;stroke-opacity:1;paint-order:stroke fill markers"
         d="M 1.8219645,3.8285068 C 1.793271,4.080883 2.0576992,4.3703982 1.9309584,4.5826777 1.8362313,4.7273249 1.6434152,5.014785 1.6907078,5.1315239 1.7422397,5.2587273 1.8665576,5.2398966 1.974242,5.1521279 2.2058158,4.9633826 2.218257,4.8615665 2.6495233,4.881343 3.2710903,4.9098462 3.5009059,5.7616301 4.3174603,5.9040323 3.3157721,6.7702344 3.1120999,6.5694072 2.5595146,6.461621 2.0995829,6.2454956 2.2405808,5.6486387 2.2217709,5.6535049 2.1954512,5.6232308 2.0604062,5.6124184 2.0441728,5.6358308 1.9205347,5.7651016 1.9567551,5.7886819 1.7304899,6.1541455 1.6639146,6.261678 1.6809912,6.3791921 1.7537796,6.5378279 1.8193599,6.6807543 1.8972388,7.0104143 1.964835,7.1325195 2.1831713,7.5031394 2.364368,7.3656831 2.6539728,7.300645 2.4973098,7.7152822 2.4601185,8.6687668 2.8522239,9.0108191 3.3013743,9.1569625 3.453243,8.0958521 3.5260465,8.1007972 3.5949395,8.1054772 3.5935527,8.9769565 3.8250271,9.0823694 4.0037759,9.0960109 4.118213,8.2823507 4.248936,8.2847647 4.3895822,8.4958588 4.3861693,9.1471403 4.5822518,9.1147368 4.7617537,9.1219873 4.7346083,8.2313557 4.9997426,8.3049186 L 5.0001758,6.749458 v -5.291e-4 c -0.064548,-0.019521 -0.1403922,0.021947 -0.1696191,0.145211 -0.02283,0.096285 -0.00864,0.222459 -0.033839,0.3152261 C 4.7799137,7.271232 4.7753707,7.293719 4.6863175,7.3318393 4.5452267,7.369898 4.3958959,7.1075621 4.3699208,6.9695874 4.4579348,6.7858181 4.5632098,6.6487751 4.618216,6.5179355 c 0.031055,-0.07387 0.20942,-0.3360174 0.2686755,-0.376706 0.081818,-0.056181 0.1132843,-0.041357 0.1132843,-0.041356 v 5.291e-4 0.649056 1.5559773 l -10e-6,-7.0801874 C 4.0969106,1.2251632 2.9836908,1.341746 2.4498447,2.2094089 1.7174624,3.2638427 1.8873557,3.253352 1.8219645,3.8285068 Z m 6.356071,0 C 8.206729,4.080883 7.9423008,4.3703982 8.0690416,4.5826777 8.1637687,4.7273249 8.3565848,5.014785 8.3092922,5.1315239 8.2577603,5.2587273 8.1334424,5.2398966 8.025758,5.1521279 7.7941842,4.9633826 7.781743,4.8615665 7.3504767,4.881343 6.7289097,4.9098462 6.4990941,5.7616301 5.6825397,5.9040323 6.6842279,6.7702344 6.8879001,6.5694072 7.4404854,6.461621 7.9004171,6.2454956 7.7594192,5.6486387 7.7782291,5.6535049 c 0.02632,-0.030274 0.1613647,-0.041086 0.1775981,-0.017674 0.1236381,0.1292708 0.087418,0.1528511 0.3136829,0.5183147 0.066575,0.1075325 0.049499,0.2250466 -0.02329,0.3836824 C 8.1806401,6.6807543 8.1027612,7.0104143 8.035165,7.1325195 7.8168287,7.5031394 7.635632,7.3656831 7.3460272,7.300645 7.5026902,7.7152822 7.5398815,8.6687668 7.1477761,9.0108191 6.6986257,9.1569625 6.546757,8.0958521 6.4739535,8.1007972 6.4050605,8.1054772 6.4064473,8.9769565 6.1749729,9.0823694 5.9962241,9.0960109 5.881787,8.2823507 5.751064,8.2847647 5.6104178,8.4958588 5.6138307,9.1471403 5.4177482,9.1147368 5.2382463,9.1219873 5.2653917,8.2313557 5.0002574,8.3049186 L 4.9998242,6.749458 v -5.291e-4 c 0.064548,-0.019521 0.1403922,0.021947 0.1696191,0.145211 0.02283,0.096285 0.00864,0.222459 0.033839,0.3152261 0.016804,0.061866 0.021347,0.084353 0.1104002,0.1224733 C 5.4547733,7.369898 5.6041041,7.1075621 5.6300792,6.9695874 5.5420652,6.7858181 5.4367902,6.6487751 5.381784,6.5179355 5.350729,6.4440655 5.172364,6.1819181 5.1131085,6.1412295 5.0312905,6.0850485 4.9998242,6.0998725 4.9998242,6.0998735 v 5.291e-4 0.649056 1.5559773 l 10e-6,-7.0801874 c 0.9032552,-8.53e-5 2.016475,0.1164975 2.5503211,0.9841604 0.7323823,1.0544338 0.562489,1.0439431 0.6278802,1.6190979 z"
         sodipodi:nodetypes="acsssccccsscccsccccccssccsscccccca"
         inkscape:original-d="M 1.8219645,3.8285068 C 1.793271,4.080883 2.0576992,4.3703982 1.9309584,4.5826777 1.8362313,4.7273249 1.6434152,5.014785 1.6907078,5.1315239 1.7422397,5.2587273 1.8665576,5.2398966 1.974242,5.1521279 2.2058158,4.9633826 2.218257,4.8615665 2.6495233,4.881343 3.2710903,4.9098462 3.5009059,5.7616301 4.3174603,5.9040323 3.3157721,6.7702344 3.1120999,6.5694072 2.5595146,6.461621 2.0995829,6.2454956 2.2405808,5.6486387 2.2217709,5.6535049 2.1954512,5.6232308 2.0604062,5.6124184 2.0441728,5.6358308 1.9205347,5.7651016 1.9567551,5.7886819 1.7304899,6.1541455 1.6639146,6.261678 1.6809912,6.3791921 1.7537796,6.5378279 1.8193599,6.6807543 1.8972388,7.0104143 1.964835,7.1325195 2.1831713,7.5031394 2.364368,7.3656831 2.6539728,7.300645 2.4973098,7.7152822 2.4601185,8.6687668 2.8522239,9.0108191 3.3013743,9.1569625 3.453243,8.0958521 3.5260465,8.1007972 3.5949395,8.1054772 3.5935527,8.9769565 3.8250271,9.0823694 4.0037759,9.0960109 4.118213,8.2823507 4.248936,8.2847647 4.3895822,8.4958588 4.3861693,9.1471403 4.5822518,9.1147368 4.7617537,9.1219873 4.7346083,8.2313557 4.9997426,8.3049186 L 5.0001758,6.749458 v -5.291e-4 c -0.064548,-0.019521 -0.1403922,0.021947 -0.1696191,0.145211 -0.02283,0.096285 -0.00864,0.222459 -0.033839,0.3152261 C 4.7799137,7.271232 4.7753707,7.293719 4.6863175,7.3318393 4.5452267,7.369898 4.3958959,7.1075621 4.3699208,6.9695874 4.4579348,6.7858181 4.5632098,6.6487751 4.618216,6.5179355 c 0.031055,-0.07387 0.20942,-0.3360174 0.2686755,-0.376706 0.081818,-0.056181 0.1132843,-0.041357 0.1132843,-0.041356 v 5.291e-4 0.649056 1.5559773 l -10e-6,-7.0801874 C 4.0969106,1.2251632 2.9836908,1.341746 2.4498447,2.2094089 1.7174624,3.2638427 1.8873557,3.253352 1.8219645,3.8285068 Z"
         inkscape:path-effect="#path-effect1938"
         transform="translate(0,-0.22524845)" />
    </g>
  </g>
</svg>
