<?xml version="1.0" encoding="UTF-8" standalone="no"?>
<svg
   xmlns:dc="http://purl.org/dc/elements/1.1/"
   xmlns:cc="http://creativecommons.org/ns#"
   xmlns:rdf="http://www.w3.org/1999/02/22-rdf-syntax-ns#"
   xmlns:svg="http://www.w3.org/2000/svg"
   xmlns="http://www.w3.org/2000/svg"
   xmlns:sodipodi="http://sodipodi.sourceforge.net/DTD/sodipodi-0.dtd"
   xmlns:inkscape="http://www.inkscape.org/namespaces/inkscape"
   width="10mm"
   height="10mm"
   viewBox="0 0 10 10"
   version="1.1"
   id="svg8"
   inkscape:version="1.0.2 (e86c870, 2021-01-15)"
   sodipodi:docname="switch_disruption.svg"
   inkscape:label="Base Circle">
  <title
     id="title833">Aetherium RPG Dice Symbols</title>
  <defs
     id="defs2">
    <inkscape:path-effect
       effect="mirror_symmetry"
       start_point="5.0001758,1.2252482"
       end_point="5.0001758,9.0831656"
       center_point="5.0001758,5.1542069"
       id="path-effect2137"
       is_visible="true"
       lpeversion="1"
       mode="vertical"
       discard_orig_path="false"
       fuse_paths="false"
       oposite_fuse="false"
       split_items="false" />
    <inkscape:path-effect
       effect="mirror_symmetry"
       start_point="5.0001758,1.2252482"
       end_point="5.0001758,9.0831656"
       center_point="5.0001758,5.1542069"
       id="path-effect1971"
       is_visible="true"
       lpeversion="1"
       mode="vertical"
       discard_orig_path="false"
       fuse_paths="false"
       oposite_fuse="false"
       split_items="false" />
    <inkscape:path-effect
       effect="mirror_symmetry"
       start_point="5.0001758,1.2252482"
       end_point="5.0001758,9.0831656"
       center_point="5.0001758,5.1542069"
       id="path-effect1944"
       is_visible="true"
       lpeversion="1"
       mode="vertical"
       discard_orig_path="false"
       fuse_paths="false"
       oposite_fuse="false"
       split_items="false" />
    <inkscape:path-effect
       effect="mirror_symmetry"
       start_point="5.0001758,1.2252482"
       end_point="5.0001758,9.0831656"
       center_point="5.0001758,5.1542069"
       id="path-effect1938"
       is_visible="true"
       lpeversion="1"
       mode="vertical"
       discard_orig_path="false"
       fuse_paths="false"
       oposite_fuse="false"
       split_items="false" />
  </defs>
  <sodipodi:namedview
     id="base"
     pagecolor="#ffffff"
     bordercolor="#666666"
     borderopacity="1.0"
     inkscape:pageopacity="0.0"
     inkscape:pageshadow="2"
     inkscape:zoom="11.313709"
     inkscape:cx="-12.704415"
     inkscape:cy="17.663134"
     inkscape:document-units="mm"
     inkscape:current-layer="g1187"
     inkscape:document-rotation="0"
     showgrid="false"
     inkscape:window-width="1920"
     inkscape:window-height="1053"
     inkscape:window-x="0"
     inkscape:window-y="0"
     inkscape:window-maximized="1"
     showguides="true"
     inkscape:guide-bbox="true"
     inkscape:object-paths="true"
     inkscape:object-nodes="true"
     inkscape:snap-center="true"
     inkscape:snap-intersection-paths="true"
     inkscape:snap-nodes="false"
     inkscape:snap-object-midpoints="true">
    <sodipodi:guide
       position="15.77578,-2.9976556"
       orientation="0,-1"
       id="guide1050" />
  </sodipodi:namedview>
  <metadata
     id="metadata5">
    <rdf:RDF>
      <cc:Work
         rdf:about="">
        <dc:format>image/svg+xml</dc:format>
        <dc:type
           rdf:resource="http://purl.org/dc/dcmitype/StillImage" />
        <dc:title>Aetherium RPG Dice Symbols</dc:title>
        <cc:license
           rdf:resource="http://creativecommons.org/publicdomain/zero/1.0/" />
        <dc:creator>
          <cc:Agent>
            <dc:title>Moritz Maxeiner</dc:title>
          </cc:Agent>
        </dc:creator>
      </cc:Work>
      <cc:License
         rdf:about="http://creativecommons.org/publicdomain/zero/1.0/">
        <cc:permits
           rdf:resource="http://creativecommons.org/ns#Reproduction" />
        <cc:permits
           rdf:resource="http://creativecommons.org/ns#Distribution" />
        <cc:permits
           rdf:resource="http://creativecommons.org/ns#DerivativeWorks" />
      </cc:License>
    </rdf:RDF>
  </metadata>
  <g
     id="g1187"
     inkscape:label="Switch, Disruption"
     style="display:inline"
     inkscape:groupmode="layer">
    <g
       id="g2095">
      <g
         id="g2086"
         transform="matrix(0.55,0,0,0.55,2.2499789,2.1831129)">
        <path
           id="path2082"
           style="color:#000000;font-style:normal;font-variant:normal;font-weight:normal;font-stretch:normal;font-size:medium;line-height:normal;font-family:sans-serif;font-variant-ligatures:normal;font-variant-position:normal;font-variant-caps:normal;font-variant-numeric:normal;font-variant-alternates:normal;font-variant-east-asian:normal;font-feature-settings:normal;font-variation-settings:normal;text-indent:0;text-align:start;text-decoration:none;text-decoration-line:none;text-decoration-style:solid;text-decoration-color:#000000;letter-spacing:normal;word-spacing:normal;text-transform:none;writing-mode:lr-tb;direction:ltr;text-orientation:mixed;dominant-baseline:auto;baseline-shift:baseline;text-anchor:start;white-space:normal;shape-padding:0;shape-margin:0;inline-size:0;clip-rule:nonzero;display:inline;overflow:visible;visibility:visible;opacity:1;isolation:auto;mix-blend-mode:normal;color-interpolation:sRGB;color-interpolation-filters:linearRGB;solid-color:#000000;solid-opacity:1;vector-effect:none;fill:#00004d;fill-opacity:1;fill-rule:nonzero;stroke:none;stroke-width:3.77953;stroke-linecap:butt;stroke-linejoin:round;stroke-miterlimit:4;stroke-dasharray:none;stroke-dashoffset:0;stroke-opacity:1;paint-order:stroke fill markers;color-rendering:auto;image-rendering:auto;shape-rendering:auto;text-rendering:auto;enable-background:accumulate;stop-color:#000000;stop-opacity:1"
           d="M 16.0625,5.0117188 C 9.6071332,6.3313795 4.7246094,12.063431 4.7246094,18.898438 c 0,7.805268 6.3685596,14.171874 14.1738286,14.171874 7.805268,0 14.171874,-6.366606 14.171874,-14.171874 0,-6.835014 -4.882513,-12.5670665 -11.33789,-13.8867192 v 3.890625 c 4.371568,1.2281632 7.558594,5.2189062 7.558594,9.9960942 0,5.762578 -4.63,10.392578 -10.392578,10.392578 -5.762579,0 -10.3945318,-4.63 -10.3945318,-10.392578 0,-4.777188 3.1870258,-8.767931 7.5585938,-9.9960942 z"
           transform="scale(0.26458333)" />
        <path
           style="color:#000000;font-style:normal;font-variant:normal;font-weight:normal;font-stretch:normal;font-size:medium;line-height:normal;font-family:sans-serif;font-variant-ligatures:normal;font-variant-position:normal;font-variant-caps:normal;font-variant-numeric:normal;font-variant-alternates:normal;font-variant-east-asian:normal;font-feature-settings:normal;font-variation-settings:normal;text-indent:0;text-align:start;text-decoration:none;text-decoration-line:none;text-decoration-style:solid;text-decoration-color:#000000;letter-spacing:normal;word-spacing:normal;text-transform:none;writing-mode:lr-tb;direction:ltr;text-orientation:mixed;dominant-baseline:auto;baseline-shift:baseline;text-anchor:start;white-space:normal;shape-padding:0;shape-margin:0;inline-size:0;clip-rule:nonzero;display:inline;overflow:visible;visibility:visible;opacity:1;isolation:auto;mix-blend-mode:normal;color-interpolation:sRGB;color-interpolation-filters:linearRGB;solid-color:#000000;solid-opacity:1;vector-effect:none;fill:#00004d;fill-opacity:1;fill-rule:nonzero;stroke:none;stroke-linecap:round;stroke-linejoin:round;stroke-miterlimit:4;stroke-dasharray:none;stroke-dashoffset:0;stroke-opacity:1;paint-order:stroke fill markers;color-rendering:auto;image-rendering:auto;shape-rendering:auto;text-rendering:auto;enable-background:accumulate;stop-color:#000000;stop-opacity:1"
           d="M 4.5,1 V 5 C 4.5,5.2761424 4.7238576,5.5 5,5.5 5.2761424,5.5 5.5,5.2761424 5.5,5 V 1 C 5.1666667,0.937974 4.8333333,0.9363533 4.5,1 Z"
           id="path2084"
           sodipodi:nodetypes="cssscc" />
      </g>
      <path
         style="color:#000000;font-style:normal;font-variant:normal;font-weight:normal;font-stretch:normal;font-size:medium;line-height:normal;font-family:sans-serif;font-variant-ligatures:normal;font-variant-position:normal;font-variant-caps:normal;font-variant-numeric:normal;font-variant-alternates:normal;font-variant-east-asian:normal;font-feature-settings:normal;font-variation-settings:normal;text-indent:0;text-align:start;text-decoration:none;text-decoration-line:none;text-decoration-style:solid;text-decoration-color:#000000;letter-spacing:normal;word-spacing:normal;text-transform:none;writing-mode:lr-tb;direction:ltr;text-orientation:mixed;dominant-baseline:auto;baseline-shift:baseline;text-anchor:start;white-space:normal;shape-padding:0;shape-margin:0;inline-size:0;clip-rule:nonzero;display:inline;overflow:visible;visibility:visible;isolation:auto;mix-blend-mode:normal;color-interpolation:sRGB;color-interpolation-filters:linearRGB;solid-color:#000000;solid-opacity:1;vector-effect:none;fill:#00004d;fill-opacity:1;fill-rule:nonzero;stroke:none;stroke-linecap:butt;stroke-linejoin:round;stroke-miterlimit:4;stroke-dasharray:none;stroke-dashoffset:0;stroke-opacity:1;paint-order:stroke fill markers;color-rendering:auto;image-rendering:auto;shape-rendering:auto;text-rendering:auto;enable-background:accumulate;stop-color:#000000"
         d="M 4.6175605,1.269426 C 4.5546695,1.275846 4.3999647,0.60858718 4.3267589,0.61982993 4.1763915,0.64027072 4.0322237,0.67748559 3.894861,0.70854767 3.8241631,0.72681449 3.9457106,1.400789 3.8870645,1.4191 3.6453364,1.4905492 3.4237094,1.5990766 3.2151523,1.7037979 3.1620253,1.7327239 2.7661834,1.1746963 2.7052685,1.2117793 2.5785383,1.2860997 2.4630803,1.3725282 2.3516322,1.4510222 2.2947307,1.4936239 2.6634464,2.0699634 2.6171118,2.1082309 2.42316,2.2635678 2.2603907,2.4446461 2.1082311,2.6171118 2.0699641,2.6634458 1.4936247,2.2947312 1.4510226,2.3516321 1.361042,2.467764 1.286009,2.5909819 1.2117796,2.7052684 1.1746965,2.766183 1.7327241,3.1620253 1.7037981,3.2151523 1.5798215,3.4345922 1.4960557,3.6670975 1.4191004,3.8870645 c -0.018311,0.058646 -0.69228542,-0.062901 -0.71055223,0.0078 -0.0399617,0.1463439 -0.0638712,0.2934342 -0.088719,0.431898 -0.011238,0.073205 0.65601823,0.2279106 0.64959623,0.2908016 -0.030887,0.2626973 -0.01641,0.5199966 1e-7,0.764879 0.00642,0.062891 -0.66083896,0.2175959 -0.64959621,0.2908016 0.0204423,0.1503675 0.0576555,0.294535 0.0887178,0.4318981 0.0182669,0.070698 0.69224141,-0.05085 0.71055341,0.0078 0.071449,0.241728 0.1799765,0.4633552 0.2846976,0.6719122 0.028926,0.053127 -0.5291016,0.4489691 -0.4920185,0.509884 0.07432,0.1267303 0.1607488,0.2421878 0.239243,0.3536363 0.042601,0.056901 0.6189411,-0.3118143 0.6572083,-0.2654799 0.1553365,0.193952 0.3364149,0.3567213 0.5088805,0.5088808 0.046334,0.038267 -0.3223807,0.6146065 -0.2654796,0.6572086 0.1161321,0.089981 0.2393499,0.1650135 0.3536365,0.239243 0.060915,0.037083 0.4567566,-0.5209446 0.5098836,-0.4920186 0.21944,0.1239765 0.4519452,0.2077425 0.6719122,0.2846977 0.058646,0.018311 -0.062901,0.6922855 0.0078,0.7105524 0.1463441,0.039961 0.2934343,0.06387 0.4318981,0.088718 0.073205,0.011238 0.2279106,-0.656018 0.2908016,-0.649596 0.2626972,0.030886 0.5199964,0.01641 0.7648787,-8e-7 0.062891,-0.00642 0.2175964,0.6608398 0.2908022,0.6495971 0.1503674,-0.020443 0.2945351,-0.057656 0.4318981,-0.088718 0.070698,-0.018267 -0.05085,-0.6922413 0.0078,-0.7105533 C 6.3546633,8.5094498 6.5762907,8.4009229 6.7848477,8.2962019 6.8379747,8.2672759 7.2338167,8.8253024 7.2947316,8.7882205 7.4214621,8.7139002 7.5369194,8.6274717 7.6483679,8.5489775 7.705269,8.5063755 7.336554,7.9300359 7.3828881,7.8917689 7.5744817,7.7335327 7.7396092,7.5553539 7.8917689,7.3828882 7.9300359,7.3365542 8.5063754,7.7052689 8.5489775,7.6483678 8.6389585,7.5322356 8.7139913,7.409018 8.7882205,7.2947316 8.8253036,7.2338169 8.2672759,6.8379747 8.2962019,6.7848477 8.416724,6.5634917 8.5039443,6.3329025 8.5808996,6.1129355 c 0.018311,-0.058646 0.6922855,0.062901 0.7105523,-0.0078 0.039961,-0.1463441 0.06387,-0.2934343 0.088718,-0.4318981 0.011238,-0.073205 -0.656018,-0.2279106 -0.649596,-0.2908016 0.026872,-0.2631383 0.01641,-0.5199963 0,-0.764879 C 8.7241521,4.5546695 9.3914129,4.3999647 9.3801702,4.3267589 9.3597278,4.1763914 9.3225146,4.0322238 9.2914524,3.8948609 9.2731852,3.8241634 8.599211,3.9457105 8.5808998,3.8870645 8.5057733,3.646454 8.4009234,3.4237094 8.2962021,3.2151523 8.267276,3.1620253 8.8253032,2.7661834 8.7882204,2.7052685 8.7139003,2.578538 8.6274717,2.4630807 8.5489775,2.3516321 8.5063755,2.2947311 7.9300359,2.6634459 7.8917689,2.6171119 7.7335327,2.4255182 7.5553539,2.2603908 7.3828882,2.1082311 7.3365541,2.069964 7.705269,1.4936245 7.6483678,1.4510226 7.5322362,1.3610418 7.4090179,1.2860091 7.2947316,1.2117797 7.2338167,1.1746969 6.8379747,1.732724 6.7848477,1.7037979 6.5634917,1.5832758 6.3329025,1.4960555 6.1129355,1.4191002 6.0542895,1.400789 6.1758368,0.72681485 6.1051392,0.70854767 5.9587952,0.66858712 5.8117048,0.64467766 5.6732412,0.61982981 5.6000354,0.60858718 5.4453305,1.2758481 5.3824395,1.2694259 5.1193011,1.2425552 4.8624432,1.2530157 4.6175605,1.269426 Z M 5,1.9132413 C 6.7672238,1.9974072 8.0629179,3.4318986 8.0867587,5 8.0025928,6.7672238 6.5681014,8.0629179 5,8.0867587 3.2327762,8.0025928 1.9370821,6.5681014 1.9132413,5 1.9974072,3.2327762 3.4318986,1.9370821 5,1.9132413 Z"
         id="path1217"
         sodipodi:nodetypes="sccccccccccccccccccccccccccccccccccscccscccscccscccscccscccscccssccccc" />
    </g>
  </g>
</svg>
